<mxfile host="app.diagrams.net" modified="2023-06-08T16:34:44.786Z" agent="Mozilla/5.0 (Windows NT 10.0; Win64; x64) AppleWebKit/537.36 (KHTML, like Gecko) Chrome/110.0.0.0 Safari/537.36" etag="B7LDMzvnLeey-MQ55qfE" version="21.3.7" type="device">
  <diagram id="mfAIZObuWb4pPo2fC57u" name="Page-1">
    <mxGraphModel dx="2021" dy="734" grid="1" gridSize="10" guides="1" tooltips="1" connect="1" arrows="1" fold="1" page="1" pageScale="1" pageWidth="827" pageHeight="1169" math="0" shadow="0">
      <root>
        <mxCell id="0" />
        <mxCell id="1" parent="0" />
        <mxCell id="mNSO4RlF-kOP6vkyRG6A-1" style="vsdxID=197;fillColor=#EBF1DF;gradientColor=none;shape=stencil(nZBLDoAgDERP0z3SIyjew0SURgSD+Lu9kMZoXLhwN9O+tukAlrNpJg1SzDH4QW/URgNYgZTkjA4UkwJUgGXng+6DX1zLfmoymdXo17xh5zmRJ6Q42BWCfc2oJfdAr+Yv+AP9Cb7OJ3H/2JG1HNGz/84klThPVCc=);strokeColor=#000000;labelBackgroundColor=none;rounded=0;html=1;whiteSpace=wrap;" parent="1" vertex="1">
          <mxGeometry x="-29" y="878" width="289" height="53" as="geometry" />
        </mxCell>
        <mxCell id="mNSO4RlF-kOP6vkyRG6A-3" style="vsdxID=93;fillColor=#f2dcda;gradientColor=none;shape=stencil(nZBLDoAgDERP0z3SIyjew0SURgSD+Lu9kMZoXLhwN9O+tukAlrNpJg1SzDH4QW/URgNYgZTkjA4UkwJUgGXng+6DX1zLfmoymdXo17xh5zmRJ6Q42BWCfc2oJfdAr+Yv+AP9Cb7OJ3H/2JG1HNGz/84klThPVCc=);strokeColor=#000000;labelBackgroundColor=none;rounded=0;html=1;whiteSpace=wrap;" parent="1" vertex="1">
          <mxGeometry x="-30" y="798" width="290" height="47" as="geometry" />
        </mxCell>
        <mxCell id="mNSO4RlF-kOP6vkyRG6A-4" style="vsdxID=247;edgeStyle=none;startArrow=none;endArrow=classic;startSize=5;endSize=5;strokeColor=#923931;spacingTop=0;spacingBottom=0;spacingLeft=0;spacingRight=0;verticalAlign=middle;html=1;labelBackgroundColor=#ffffff;rounded=0;" parent="1" edge="1">
          <mxGeometry relative="1" as="geometry">
            <Array as="points" />
            <mxPoint x="98" y="934" as="sourcePoint" />
            <mxPoint x="98" y="970" as="targetPoint" />
          </mxGeometry>
        </mxCell>
        <mxCell id="mNSO4RlF-kOP6vkyRG6A-5" value="&lt;p style=&quot;margin: 0px ; text-indent: 0px ; direction: ltr ; font-size: 14px&quot;&gt;&lt;/p&gt;&lt;font style=&quot;font-size: 15px&quot;&gt;Ta=&lt;span style=&quot;font-family: &amp;#34;cambria math&amp;#34;&quot;&gt;Ta&lt;/span&gt;&lt;sub style=&quot;font-family: &amp;#34;cambria math&amp;#34;&quot;&gt;1&lt;/sub&gt;&lt;sub style=&quot;letter-spacing: 0px ; font-family: &amp;#34;cambria math&amp;#34;&quot;&gt;*&lt;/sub&gt;&lt;span style=&quot;letter-spacing: 0px ; font-family: &amp;#34;cambria math&amp;#34;&quot;&gt;a&lt;/span&gt;&lt;sub style=&quot;letter-spacing: 0px ; font-family: &amp;#34;cambria math&amp;#34;&quot;&gt;1&lt;/sub&gt;&lt;span style=&quot;letter-spacing: 0px ; font-family: &amp;#34;cambria math&amp;#34;&quot;&gt;+&lt;/span&gt;&lt;span style=&quot;font-family: &amp;#34;cambria math&amp;#34;&quot;&gt;Ta&lt;/span&gt;&lt;sub style=&quot;font-family: &amp;#34;cambria math&amp;#34;&quot;&gt;2&lt;/sub&gt;&lt;sub style=&quot;letter-spacing: 0px ; font-family: &amp;#34;cambria math&amp;#34;&quot;&gt;*&lt;/sub&gt;&lt;span style=&quot;letter-spacing: 0px ; font-family: &amp;#34;cambria math&amp;#34;&quot;&gt;a&lt;/span&gt;&lt;sub style=&quot;letter-spacing: 0px ; font-family: &amp;#34;cambria math&amp;#34;&quot;&gt;2&lt;/sub&gt;&lt;span style=&quot;letter-spacing: 0px ; font-family: &amp;#34;cambria math&amp;#34;&quot;&gt;+&lt;/span&gt;&lt;span style=&quot;font-family: &amp;#34;cambria math&amp;#34;&quot;&gt;Ta&lt;/span&gt;&lt;sub style=&quot;font-family: &amp;#34;cambria math&amp;#34;&quot;&gt;3&lt;/sub&gt;&lt;sub style=&quot;letter-spacing: 0px ; font-family: &amp;#34;cambria math&amp;#34;&quot;&gt;*&lt;/sub&gt;&lt;span style=&quot;letter-spacing: 0px ; font-family: &amp;#34;cambria math&amp;#34;&quot;&gt;a&lt;/span&gt;&lt;sub style=&quot;letter-spacing: 0px ; font-family: &amp;#34;cambria math&amp;#34;&quot;&gt;3&lt;/sub&gt;&lt;span style=&quot;letter-spacing: 0px ; font-family: &amp;#34;cambria math&amp;#34;&quot;&gt;-&lt;/span&gt;&lt;span style=&quot;font-family: &amp;#34;cambria math&amp;#34;&quot;&gt;Ta&lt;/span&gt;&lt;sub style=&quot;font-family: &amp;#34;cambria math&amp;#34;&quot;&gt;4&lt;/sub&gt;&lt;sub style=&quot;letter-spacing: 0px ; font-family: &amp;#34;cambria math&amp;#34;&quot;&gt;*&lt;/sub&gt;&lt;span style=&quot;letter-spacing: 0px ; font-family: &amp;#34;cambria math&amp;#34;&quot;&gt;a&lt;/span&gt;&lt;sub style=&quot;letter-spacing: 0px ; font-family: &amp;#34;cambria math&amp;#34;&quot;&gt;4&lt;/sub&gt;&lt;br&gt;&lt;/font&gt;" style="verticalAlign=middle;align=center;vsdxID=71;shape=stencil(vVHLDsIgEPwajiQI6RfU+h8bu22JCGRB2/69kG1iazx58DazM/vIjjBtmiCi0CplCjecbZ8nYc5Ca+snJJsLEqYTph0C4Ujh4XvmEaqzont41gkL96naodXKrGF6YSfQtUi0OXXDVlqPfJNP6usotUhYbJIUMmQb/GGrAxpRljVycDBuc1hKM2LclX8/7H9nFfB+82Cd45T2+mcspcSRmu4F);spacingTop=-3;spacingBottom=-1;spacingLeft=-3;spacingRight=-3;labelBackgroundColor=none;rounded=0;html=1;whiteSpace=wrap;" parent="1" vertex="1">
          <mxGeometry x="-25" y="890" width="276" height="34.5" as="geometry" />
        </mxCell>
        <mxCell id="mNSO4RlF-kOP6vkyRG6A-7" value="&lt;font style=&quot;font-family: calibri; color: rgb(0, 0, 0); direction: ltr; letter-spacing: 0px; line-height: 120%; opacity: 1;&quot;&gt;&lt;font style=&quot;font-size: 23px;&quot;&gt;Couche d’entrée&lt;/font&gt;&lt;br&gt;&lt;/font&gt;" style="verticalAlign=middle;align=center;vsdxID=192;fillColor=#FFF2CC;gradientColor=none;shape=stencil(nZBLDoAgDERP0z3SIyjew0SURgSD+Lu9kMZoXLhwN9O+tukAlrNpJg1SzDH4QW/URgNYgZTkjA4UkwJUgGXng+6DX1zLfmoymdXo17xh5zmRJ6Q42BWCfc2oJfdAr+Yv+AP9Cb7OJ3H/2JG1HNGz/84klThPVCc=);strokeColor=none;labelBackgroundColor=none;rounded=0;html=1;whiteSpace=wrap;" parent="1" vertex="1">
          <mxGeometry x="360" y="734" width="204" height="34" as="geometry" />
        </mxCell>
        <mxCell id="mNSO4RlF-kOP6vkyRG6A-11" style="vsdxID=85;fillColor=#fff2cc;gradientColor=none;shape=stencil(nZBLDoAgDERP0z3SIyjew0SURgSD+Lu9kMZoXLhwN9O+tukAlrNpJg1SzDH4QW/URgNYgZTkjA4UkwJUgGXng+6DX1zLfmoymdXo17xh5zmRJ6Q42BWCfc2oJfdAr+Yv+AP9Cb7OJ3H/2JG1HNGz/84klThPVCc=);strokeColor=#000000;labelBackgroundColor=none;rounded=0;html=1;whiteSpace=wrap;" parent="1" vertex="1">
          <mxGeometry x="-39" y="730" width="65" height="40" as="geometry" />
        </mxCell>
        <mxCell id="mNSO4RlF-kOP6vkyRG6A-12" style="vsdxID=102;edgeStyle=none;startArrow=none;endArrow=classic;startSize=5;endSize=5;strokeColor=#923931;spacingTop=0;spacingBottom=0;spacingLeft=0;spacingRight=0;verticalAlign=middle;html=1;labelBackgroundColor=#ffffff;rounded=0;" parent="1" edge="1">
          <mxGeometry relative="1" as="geometry">
            <Array as="points" />
            <mxPoint x="-7" y="770" as="sourcePoint" />
            <mxPoint x="-7" y="798" as="targetPoint" />
          </mxGeometry>
        </mxCell>
        <mxCell id="mNSO4RlF-kOP6vkyRG6A-13" value="&lt;span style=&quot;font-family: &amp;#34;cambria math&amp;#34; ; font-size: 15px&quot;&gt;Ta&lt;/span&gt;&lt;sub style=&quot;font-family: &amp;#34;cambria math&amp;#34;&quot;&gt;1&lt;/sub&gt;&lt;sub style=&quot;font-family: &amp;#34;cambria math&amp;#34; ; letter-spacing: 0px&quot;&gt;*&lt;/sub&gt;&lt;span style=&quot;font-family: &amp;#34;cambria math&amp;#34; ; font-size: 15px ; letter-spacing: 0px&quot;&gt;a&lt;/span&gt;&lt;sub style=&quot;font-family: &amp;#34;cambria math&amp;#34; ; letter-spacing: 0px&quot;&gt;1&lt;/sub&gt;&lt;sub style=&quot;font-family: &amp;#34;cambria math&amp;#34;&quot;&gt;&lt;br&gt;&lt;/sub&gt;" style="verticalAlign=middle;align=center;vsdxID=66;fillColor=#FFFFFF;gradientColor=none;shape=stencil(vVHLDsIgEPwajiQI6RfU+h8bu22JCGRB2/69kG1iazx58DazM/vIjjBtmiCi0CplCjecbZ8nYc5Ca+snJJsLEqYTph0C4Ujh4XvmEaqzont41gkL96naodXKrGF6YSfQtUi0OXXDVlqPfJNP6usotUhYbJIUMmQb/GGrAxpRljVycDBuc1hKM2LclX8/7H9nFfB+82Cd45T2+mcspcSRmu4F);spacingTop=-3;spacingBottom=-1;spacingLeft=-3;spacingRight=-3;labelBackgroundColor=none;rounded=0;html=1;whiteSpace=wrap;" parent="1" vertex="1">
          <mxGeometry x="-32" y="738" width="50" height="28" as="geometry" />
        </mxCell>
        <mxCell id="mNSO4RlF-kOP6vkyRG6A-14" value="&lt;p style=&quot;margin-left: 0 ; margin-right: 0 ; margin-top: 0px ; margin-bottom: 0px ; text-indent: 0 ; direction: ltr&quot;&gt;&lt;font style=&quot;font-family: &amp;#34;cambria math&amp;#34; ; color: rgb(0 , 0 , 0) ; direction: ltr ; letter-spacing: 0px ; line-height: 120% ; opacity: 1 ; font-size: 15px&quot;&gt;a&lt;sub&gt;1&lt;/sub&gt;&lt;/font&gt;&lt;/p&gt;" style="verticalAlign=middle;align=center;vsdxID=66;fillColor=#FFFFFF;gradientColor=none;shape=stencil(vVHLDsIgEPwajiQI6RfU+h8bu22JCGRB2/69kG1iazx58DazM/vIjjBtmiCi0CplCjecbZ8nYc5Ca+snJJsLEqYTph0C4Ujh4XvmEaqzont41gkL96naodXKrGF6YSfQtUi0OXXDVlqPfJNP6usotUhYbJIUMmQb/GGrAxpRljVycDBuc1hKM2LclX8/7H9nFfB+82Cd45T2+mcspcSRmu4F);spacingTop=-3;spacingBottom=-1;spacingLeft=-3;spacingRight=-3;labelBackgroundColor=none;rounded=0;html=1;whiteSpace=wrap;" parent="1" vertex="1">
          <mxGeometry x="-19" y="689" width="22" height="22" as="geometry" />
        </mxCell>
        <mxCell id="mNSO4RlF-kOP6vkyRG6A-15" style="vsdxID=102;edgeStyle=none;startArrow=none;endArrow=classic;startSize=5;endSize=5;strokeColor=#923931;spacingTop=0;spacingBottom=0;spacingLeft=0;spacingRight=0;verticalAlign=middle;html=1;labelBackgroundColor=#ffffff;rounded=0;" parent="1" edge="1">
          <mxGeometry relative="1" as="geometry">
            <Array as="points" />
            <mxPoint x="-8" y="710" as="sourcePoint" />
            <mxPoint x="-8" y="738" as="targetPoint" />
          </mxGeometry>
        </mxCell>
        <mxCell id="mNSO4RlF-kOP6vkyRG6A-16" value="&lt;span style=&quot;font-family: &amp;#34;cambria math&amp;#34; ; font-size: 15px&quot;&gt;Ta&lt;/span&gt;&lt;sub style=&quot;font-family: &amp;#34;cambria math&amp;#34;&quot;&gt;1&lt;/sub&gt;" style="text;html=1;align=center;verticalAlign=middle;resizable=0;points=[];autosize=1;strokeColor=none;" parent="1" vertex="1">
          <mxGeometry x="-44" y="705" width="40" height="20" as="geometry" />
        </mxCell>
        <mxCell id="mNSO4RlF-kOP6vkyRG6A-18" style="vsdxID=85;fillColor=#fff2cc;gradientColor=none;shape=stencil(nZBLDoAgDERP0z3SIyjew0SURgSD+Lu9kMZoXLhwN9O+tukAlrNpJg1SzDH4QW/URgNYgZTkjA4UkwJUgGXng+6DX1zLfmoymdXo17xh5zmRJ6Q42BWCfc2oJfdAr+Yv+AP9Cb7OJ3H/2JG1HNGz/84klThPVCc=);strokeColor=#000000;labelBackgroundColor=none;rounded=0;html=1;whiteSpace=wrap;" parent="1" vertex="1">
          <mxGeometry x="37" y="730" width="65" height="40" as="geometry" />
        </mxCell>
        <mxCell id="mNSO4RlF-kOP6vkyRG6A-19" style="vsdxID=102;edgeStyle=none;startArrow=none;endArrow=classic;startSize=5;endSize=5;strokeColor=#923931;spacingTop=0;spacingBottom=0;spacingLeft=0;spacingRight=0;verticalAlign=middle;html=1;labelBackgroundColor=#ffffff;rounded=0;" parent="1" edge="1">
          <mxGeometry relative="1" as="geometry">
            <Array as="points" />
            <mxPoint x="69" y="770" as="sourcePoint" />
            <mxPoint x="69" y="798" as="targetPoint" />
          </mxGeometry>
        </mxCell>
        <mxCell id="mNSO4RlF-kOP6vkyRG6A-20" value="&lt;span style=&quot;font-family: &amp;#34;cambria math&amp;#34; ; font-size: 15px&quot;&gt;Ta&lt;/span&gt;&lt;sub style=&quot;font-family: &amp;#34;cambria math&amp;#34;&quot;&gt;2&lt;/sub&gt;&lt;sub style=&quot;font-family: &amp;#34;cambria math&amp;#34; ; letter-spacing: 0px&quot;&gt;*&lt;/sub&gt;&lt;span style=&quot;font-family: &amp;#34;cambria math&amp;#34; ; font-size: 15px ; letter-spacing: 0px&quot;&gt;a&lt;/span&gt;&lt;sub style=&quot;font-family: &amp;#34;cambria math&amp;#34; ; letter-spacing: 0px&quot;&gt;2&lt;/sub&gt;&lt;sub style=&quot;font-family: &amp;#34;cambria math&amp;#34;&quot;&gt;&lt;br&gt;&lt;/sub&gt;" style="verticalAlign=middle;align=center;vsdxID=66;fillColor=#FFFFFF;gradientColor=none;shape=stencil(vVHLDsIgEPwajiQI6RfU+h8bu22JCGRB2/69kG1iazx58DazM/vIjjBtmiCi0CplCjecbZ8nYc5Ca+snJJsLEqYTph0C4Ujh4XvmEaqzont41gkL96naodXKrGF6YSfQtUi0OXXDVlqPfJNP6usotUhYbJIUMmQb/GGrAxpRljVycDBuc1hKM2LclX8/7H9nFfB+82Cd45T2+mcspcSRmu4F);spacingTop=-3;spacingBottom=-1;spacingLeft=-3;spacingRight=-3;labelBackgroundColor=none;rounded=0;html=1;whiteSpace=wrap;" parent="1" vertex="1">
          <mxGeometry x="44" y="738" width="50" height="28" as="geometry" />
        </mxCell>
        <mxCell id="mNSO4RlF-kOP6vkyRG6A-21" value="&lt;p style=&quot;margin-left: 0 ; margin-right: 0 ; margin-top: 0px ; margin-bottom: 0px ; text-indent: 0 ; direction: ltr&quot;&gt;&lt;font style=&quot;font-size: 15px ; font-family: &amp;#34;cambria math&amp;#34; ; color: #000000 ; direction: ltr ; letter-spacing: 0px ; line-height: 120% ; opacity: 1&quot;&gt;a&lt;sub&gt;2&lt;/sub&gt;&lt;/font&gt;&lt;/p&gt;" style="verticalAlign=middle;align=center;vsdxID=66;fillColor=#FFFFFF;gradientColor=none;shape=stencil(vVHLDsIgEPwajiQI6RfU+h8bu22JCGRB2/69kG1iazx58DazM/vIjjBtmiCi0CplCjecbZ8nYc5Ca+snJJsLEqYTph0C4Ujh4XvmEaqzont41gkL96naodXKrGF6YSfQtUi0OXXDVlqPfJNP6usotUhYbJIUMmQb/GGrAxpRljVycDBuc1hKM2LclX8/7H9nFfB+82Cd45T2+mcspcSRmu4F);spacingTop=-3;spacingBottom=-1;spacingLeft=-3;spacingRight=-3;labelBackgroundColor=none;rounded=0;html=1;whiteSpace=wrap;" parent="1" vertex="1">
          <mxGeometry x="57" y="689" width="22" height="22" as="geometry" />
        </mxCell>
        <mxCell id="mNSO4RlF-kOP6vkyRG6A-22" style="vsdxID=102;edgeStyle=none;startArrow=none;endArrow=classic;startSize=5;endSize=5;strokeColor=#923931;spacingTop=0;spacingBottom=0;spacingLeft=0;spacingRight=0;verticalAlign=middle;html=1;labelBackgroundColor=#ffffff;rounded=0;" parent="1" edge="1">
          <mxGeometry relative="1" as="geometry">
            <Array as="points" />
            <mxPoint x="68" y="710" as="sourcePoint" />
            <mxPoint x="68" y="738" as="targetPoint" />
          </mxGeometry>
        </mxCell>
        <mxCell id="mNSO4RlF-kOP6vkyRG6A-23" value="&lt;span style=&quot;font-family: &amp;#34;cambria math&amp;#34; ; font-size: 15px&quot;&gt;Ta&lt;/span&gt;&lt;sub style=&quot;font-family: &amp;#34;cambria math&amp;#34;&quot;&gt;2&lt;/sub&gt;" style="text;html=1;align=center;verticalAlign=middle;resizable=0;points=[];autosize=1;strokeColor=none;" parent="1" vertex="1">
          <mxGeometry x="32" y="705" width="40" height="20" as="geometry" />
        </mxCell>
        <mxCell id="mNSO4RlF-kOP6vkyRG6A-24" style="vsdxID=85;fillColor=#fff2cc;gradientColor=none;shape=stencil(nZBLDoAgDERP0z3SIyjew0SURgSD+Lu9kMZoXLhwN9O+tukAlrNpJg1SzDH4QW/URgNYgZTkjA4UkwJUgGXng+6DX1zLfmoymdXo17xh5zmRJ6Q42BWCfc2oJfdAr+Yv+AP9Cb7OJ3H/2JG1HNGz/84klThPVCc=);strokeColor=#000000;labelBackgroundColor=none;rounded=0;html=1;whiteSpace=wrap;" parent="1" vertex="1">
          <mxGeometry x="113" y="730" width="65" height="40" as="geometry" />
        </mxCell>
        <mxCell id="mNSO4RlF-kOP6vkyRG6A-25" style="vsdxID=102;edgeStyle=none;startArrow=none;endArrow=classic;startSize=5;endSize=5;strokeColor=#923931;spacingTop=0;spacingBottom=0;spacingLeft=0;spacingRight=0;verticalAlign=middle;html=1;labelBackgroundColor=#ffffff;rounded=0;" parent="1" edge="1">
          <mxGeometry relative="1" as="geometry">
            <Array as="points" />
            <mxPoint x="145" y="770" as="sourcePoint" />
            <mxPoint x="145" y="798" as="targetPoint" />
          </mxGeometry>
        </mxCell>
        <mxCell id="mNSO4RlF-kOP6vkyRG6A-26" value="&lt;span style=&quot;font-family: &amp;#34;cambria math&amp;#34; ; font-size: 15px&quot;&gt;Ta&lt;/span&gt;&lt;sub style=&quot;font-family: &amp;#34;cambria math&amp;#34;&quot;&gt;3&lt;/sub&gt;&lt;sub style=&quot;font-family: &amp;#34;cambria math&amp;#34; ; letter-spacing: 0px&quot;&gt;*&lt;/sub&gt;&lt;span style=&quot;font-family: &amp;#34;cambria math&amp;#34; ; font-size: 15px ; letter-spacing: 0px&quot;&gt;a&lt;/span&gt;&lt;sub style=&quot;font-family: &amp;#34;cambria math&amp;#34; ; letter-spacing: 0px&quot;&gt;3&lt;/sub&gt;&lt;sub style=&quot;font-family: &amp;#34;cambria math&amp;#34;&quot;&gt;&lt;br&gt;&lt;/sub&gt;" style="verticalAlign=middle;align=center;vsdxID=66;fillColor=#FFFFFF;gradientColor=none;shape=stencil(vVHLDsIgEPwajiQI6RfU+h8bu22JCGRB2/69kG1iazx58DazM/vIjjBtmiCi0CplCjecbZ8nYc5Ca+snJJsLEqYTph0C4Ujh4XvmEaqzont41gkL96naodXKrGF6YSfQtUi0OXXDVlqPfJNP6usotUhYbJIUMmQb/GGrAxpRljVycDBuc1hKM2LclX8/7H9nFfB+82Cd45T2+mcspcSRmu4F);spacingTop=-3;spacingBottom=-1;spacingLeft=-3;spacingRight=-3;labelBackgroundColor=none;rounded=0;html=1;whiteSpace=wrap;" parent="1" vertex="1">
          <mxGeometry x="120" y="738" width="50" height="28" as="geometry" />
        </mxCell>
        <mxCell id="mNSO4RlF-kOP6vkyRG6A-27" value="&lt;p style=&quot;margin-left: 0 ; margin-right: 0 ; margin-top: 0px ; margin-bottom: 0px ; text-indent: 0 ; direction: ltr&quot;&gt;&lt;font style=&quot;font-size: 15px ; font-family: &amp;#34;cambria math&amp;#34; ; color: #000000 ; direction: ltr ; letter-spacing: 0px ; line-height: 120% ; opacity: 1&quot;&gt;a&lt;sub&gt;3&lt;/sub&gt;&lt;/font&gt;&lt;/p&gt;" style="verticalAlign=middle;align=center;vsdxID=66;fillColor=#FFFFFF;gradientColor=none;shape=stencil(vVHLDsIgEPwajiQI6RfU+h8bu22JCGRB2/69kG1iazx58DazM/vIjjBtmiCi0CplCjecbZ8nYc5Ca+snJJsLEqYTph0C4Ujh4XvmEaqzont41gkL96naodXKrGF6YSfQtUi0OXXDVlqPfJNP6usotUhYbJIUMmQb/GGrAxpRljVycDBuc1hKM2LclX8/7H9nFfB+82Cd45T2+mcspcSRmu4F);spacingTop=-3;spacingBottom=-1;spacingLeft=-3;spacingRight=-3;labelBackgroundColor=none;rounded=0;html=1;whiteSpace=wrap;" parent="1" vertex="1">
          <mxGeometry x="133" y="689" width="22" height="22" as="geometry" />
        </mxCell>
        <mxCell id="mNSO4RlF-kOP6vkyRG6A-28" style="vsdxID=102;edgeStyle=none;startArrow=none;endArrow=classic;startSize=5;endSize=5;strokeColor=#923931;spacingTop=0;spacingBottom=0;spacingLeft=0;spacingRight=0;verticalAlign=middle;html=1;labelBackgroundColor=#ffffff;rounded=0;" parent="1" edge="1">
          <mxGeometry relative="1" as="geometry">
            <Array as="points" />
            <mxPoint x="144" y="710" as="sourcePoint" />
            <mxPoint x="144" y="738" as="targetPoint" />
          </mxGeometry>
        </mxCell>
        <mxCell id="mNSO4RlF-kOP6vkyRG6A-29" value="&lt;font face=&quot;cambria math&quot;&gt;&lt;span style=&quot;font-size: 15px&quot;&gt;Ta&lt;sub&gt;3&lt;/sub&gt;&lt;/span&gt;&lt;/font&gt;" style="text;html=1;align=center;verticalAlign=middle;resizable=0;points=[];autosize=1;strokeColor=none;" parent="1" vertex="1">
          <mxGeometry x="108" y="705" width="40" height="20" as="geometry" />
        </mxCell>
        <mxCell id="mNSO4RlF-kOP6vkyRG6A-30" style="vsdxID=85;fillColor=#fff2cc;gradientColor=none;shape=stencil(nZBLDoAgDERP0z3SIyjew0SURgSD+Lu9kMZoXLhwN9O+tukAlrNpJg1SzDH4QW/URgNYgZTkjA4UkwJUgGXng+6DX1zLfmoymdXo17xh5zmRJ6Q42BWCfc2oJfdAr+Yv+AP9Cb7OJ3H/2JG1HNGz/84klThPVCc=);strokeColor=#000000;labelBackgroundColor=none;rounded=0;html=1;whiteSpace=wrap;" parent="1" vertex="1">
          <mxGeometry x="189" y="729" width="65" height="40" as="geometry" />
        </mxCell>
        <mxCell id="mNSO4RlF-kOP6vkyRG6A-31" style="vsdxID=102;edgeStyle=none;startArrow=none;endArrow=classic;startSize=5;endSize=5;strokeColor=#923931;spacingTop=0;spacingBottom=0;spacingLeft=0;spacingRight=0;verticalAlign=middle;html=1;labelBackgroundColor=#ffffff;rounded=0;" parent="1" edge="1">
          <mxGeometry relative="1" as="geometry">
            <Array as="points" />
            <mxPoint x="221" y="769" as="sourcePoint" />
            <mxPoint x="221" y="797" as="targetPoint" />
          </mxGeometry>
        </mxCell>
        <mxCell id="mNSO4RlF-kOP6vkyRG6A-32" value="&lt;span style=&quot;font-family: &amp;#34;cambria math&amp;#34; ; font-size: 15px&quot;&gt;Ta&lt;/span&gt;&lt;sub style=&quot;font-family: &amp;#34;cambria math&amp;#34;&quot;&gt;4&lt;/sub&gt;&lt;sub style=&quot;font-family: &amp;#34;cambria math&amp;#34; ; letter-spacing: 0px&quot;&gt;*&lt;/sub&gt;&lt;span style=&quot;font-family: &amp;#34;cambria math&amp;#34; ; font-size: 15px ; letter-spacing: 0px&quot;&gt;a&lt;/span&gt;&lt;sub style=&quot;font-family: &amp;#34;cambria math&amp;#34; ; letter-spacing: 0px&quot;&gt;4&lt;/sub&gt;&lt;sub style=&quot;font-family: &amp;#34;cambria math&amp;#34;&quot;&gt;&lt;br&gt;&lt;/sub&gt;" style="verticalAlign=middle;align=center;vsdxID=66;fillColor=#FFFFFF;gradientColor=none;shape=stencil(vVHLDsIgEPwajiQI6RfU+h8bu22JCGRB2/69kG1iazx58DazM/vIjjBtmiCi0CplCjecbZ8nYc5Ca+snJJsLEqYTph0C4Ujh4XvmEaqzont41gkL96naodXKrGF6YSfQtUi0OXXDVlqPfJNP6usotUhYbJIUMmQb/GGrAxpRljVycDBuc1hKM2LclX8/7H9nFfB+82Cd45T2+mcspcSRmu4F);spacingTop=-3;spacingBottom=-1;spacingLeft=-3;spacingRight=-3;labelBackgroundColor=none;rounded=0;html=1;whiteSpace=wrap;" parent="1" vertex="1">
          <mxGeometry x="196" y="737" width="50" height="28" as="geometry" />
        </mxCell>
        <mxCell id="mNSO4RlF-kOP6vkyRG6A-33" value="&lt;p style=&quot;margin-left: 0 ; margin-right: 0 ; margin-top: 0px ; margin-bottom: 0px ; text-indent: 0 ; direction: ltr&quot;&gt;&lt;font style=&quot;font-size: 15px ; font-family: &amp;#34;cambria math&amp;#34; ; color: #000000 ; direction: ltr ; letter-spacing: 0px ; line-height: 120% ; opacity: 1&quot;&gt;a&lt;sub&gt;4&lt;/sub&gt;&lt;/font&gt;&lt;/p&gt;" style="verticalAlign=middle;align=center;vsdxID=66;fillColor=#FFFFFF;gradientColor=none;shape=stencil(vVHLDsIgEPwajiQI6RfU+h8bu22JCGRB2/69kG1iazx58DazM/vIjjBtmiCi0CplCjecbZ8nYc5Ca+snJJsLEqYTph0C4Ujh4XvmEaqzont41gkL96naodXKrGF6YSfQtUi0OXXDVlqPfJNP6usotUhYbJIUMmQb/GGrAxpRljVycDBuc1hKM2LclX8/7H9nFfB+82Cd45T2+mcspcSRmu4F);spacingTop=-3;spacingBottom=-1;spacingLeft=-3;spacingRight=-3;labelBackgroundColor=none;rounded=0;html=1;whiteSpace=wrap;" parent="1" vertex="1">
          <mxGeometry x="209" y="688" width="22" height="22" as="geometry" />
        </mxCell>
        <mxCell id="mNSO4RlF-kOP6vkyRG6A-34" style="vsdxID=102;edgeStyle=none;startArrow=none;endArrow=classic;startSize=5;endSize=5;strokeColor=#923931;spacingTop=0;spacingBottom=0;spacingLeft=0;spacingRight=0;verticalAlign=middle;html=1;labelBackgroundColor=#ffffff;rounded=0;" parent="1" edge="1">
          <mxGeometry relative="1" as="geometry">
            <Array as="points" />
            <mxPoint x="220" y="709" as="sourcePoint" />
            <mxPoint x="220" y="737" as="targetPoint" />
          </mxGeometry>
        </mxCell>
        <mxCell id="mNSO4RlF-kOP6vkyRG6A-35" value="&lt;font face=&quot;cambria math&quot;&gt;&lt;span style=&quot;font-size: 15px&quot;&gt;Ta&lt;sub&gt;4&lt;/sub&gt;&lt;/span&gt;&lt;/font&gt;" style="text;html=1;align=center;verticalAlign=middle;resizable=0;points=[];autosize=1;strokeColor=none;" parent="1" vertex="1">
          <mxGeometry x="184" y="704" width="40" height="20" as="geometry" />
        </mxCell>
        <mxCell id="mNSO4RlF-kOP6vkyRG6A-57" value="&lt;p style=&quot;margin-left: 0 ; margin-right: 0 ; margin-top: 0px ; margin-bottom: 0px ; text-indent: 0 ; direction: ltr&quot;&gt;&lt;font style=&quot;font-size: 15px ; font-family: &amp;#34;cambria math&amp;#34; ; color: #000000 ; direction: ltr ; letter-spacing: 0px ; line-height: 120% ; opacity: 1&quot;&gt;a&lt;/font&gt;&lt;font style=&quot;font-family: &amp;#34;cambria math&amp;#34; ; color: rgb(0 , 0 , 0) ; direction: ltr ; letter-spacing: 0px ; line-height: 120% ; opacity: 1 ; font-size: 10.4167px&quot;&gt;&lt;sub&gt;5&lt;/sub&gt;&lt;/font&gt;&lt;/p&gt;" style="verticalAlign=middle;align=center;vsdxID=66;fillColor=#FFFFFF;gradientColor=none;shape=stencil(vVHLDsIgEPwajiQI6RfU+h8bu22JCGRB2/69kG1iazx58DazM/vIjjBtmiCi0CplCjecbZ8nYc5Ca+snJJsLEqYTph0C4Ujh4XvmEaqzont41gkL96naodXKrGF6YSfQtUi0OXXDVlqPfJNP6usotUhYbJIUMmQb/GGrAxpRljVycDBuc1hKM2LclX8/7H9nFfB+82Cd45T2+mcspcSRmu4F);spacingTop=-3;spacingBottom=-1;spacingLeft=-3;spacingRight=-3;labelBackgroundColor=none;rounded=0;html=1;whiteSpace=wrap;" parent="1" vertex="1">
          <mxGeometry x="269" y="687" width="22" height="22" as="geometry" />
        </mxCell>
        <mxCell id="mNSO4RlF-kOP6vkyRG6A-58" style="vsdxID=102;edgeStyle=none;startArrow=none;endArrow=classic;startSize=5;endSize=5;strokeColor=#923931;spacingTop=0;spacingBottom=0;spacingLeft=0;spacingRight=0;verticalAlign=middle;html=1;labelBackgroundColor=#ffffff;rounded=0;entryX=0.9;entryY=0.025;entryDx=0;entryDy=0;entryPerimeter=0;" parent="1" target="mNSO4RlF-kOP6vkyRG6A-94" edge="1">
          <mxGeometry relative="1" as="geometry">
            <Array as="points" />
            <mxPoint x="280" y="708" as="sourcePoint" />
            <mxPoint x="280" y="736" as="targetPoint" />
          </mxGeometry>
        </mxCell>
        <mxCell id="mNSO4RlF-kOP6vkyRG6A-61" value="&lt;font style=&quot;font-size: 15px&quot;&gt;&lt;br&gt;&lt;/font&gt;" style="text;html=1;align=center;verticalAlign=middle;resizable=0;points=[];autosize=1;strokeColor=none;" parent="1" vertex="1">
          <mxGeometry x="-14" y="1152" width="20" height="20" as="geometry" />
        </mxCell>
        <mxCell id="mNSO4RlF-kOP6vkyRG6A-62" value="&lt;font face=&quot;cambria math&quot;&gt;&lt;span style=&quot;font-size: 15px&quot;&gt;1&lt;/span&gt;&lt;/font&gt;" style="text;html=1;align=center;verticalAlign=middle;resizable=0;points=[];autosize=1;strokeColor=none;" parent="1" vertex="1">
          <mxGeometry x="-29" y="849" width="20" height="20" as="geometry" />
        </mxCell>
        <mxCell id="mNSO4RlF-kOP6vkyRG6A-63" value="&lt;font face=&quot;cambria math&quot;&gt;&lt;span style=&quot;font-size: 15px&quot;&gt;1&lt;/span&gt;&lt;/font&gt;" style="text;html=1;align=center;verticalAlign=middle;resizable=0;points=[];autosize=1;strokeColor=none;" parent="1" vertex="1">
          <mxGeometry x="44" y="844" width="20" height="20" as="geometry" />
        </mxCell>
        <mxCell id="mNSO4RlF-kOP6vkyRG6A-64" value="&lt;span style=&quot;font-family: &amp;#34;cambria math&amp;#34; ; font-size: 15px&quot;&gt;1&lt;/span&gt;" style="text;html=1;align=center;verticalAlign=middle;resizable=0;points=[];autosize=1;strokeColor=none;" parent="1" vertex="1">
          <mxGeometry x="120" y="844" width="20" height="20" as="geometry" />
        </mxCell>
        <mxCell id="mNSO4RlF-kOP6vkyRG6A-65" style="vsdxID=102;edgeStyle=none;startArrow=none;endArrow=classic;startSize=5;endSize=5;strokeColor=#923931;spacingTop=0;spacingBottom=0;spacingLeft=0;spacingRight=0;verticalAlign=middle;html=1;labelBackgroundColor=#ffffff;rounded=0;" parent="1" edge="1">
          <mxGeometry relative="1" as="geometry">
            <Array as="points" />
            <mxPoint x="222" y="848" as="sourcePoint" />
            <mxPoint x="222" y="876" as="targetPoint" />
          </mxGeometry>
        </mxCell>
        <mxCell id="mNSO4RlF-kOP6vkyRG6A-66" value="&lt;font face=&quot;cambria math&quot;&gt;&lt;span style=&quot;font-size: 15px&quot;&gt;-1&lt;/span&gt;&lt;/font&gt;" style="text;html=1;align=center;verticalAlign=middle;resizable=0;points=[];autosize=1;strokeColor=none;" parent="1" vertex="1">
          <mxGeometry x="191" y="843" width="30" height="20" as="geometry" />
        </mxCell>
        <mxCell id="mNSO4RlF-kOP6vkyRG6A-75" style="vsdxID=102;edgeStyle=none;startArrow=none;endArrow=classic;startSize=5;endSize=5;strokeColor=#923931;spacingTop=0;spacingBottom=0;spacingLeft=0;spacingRight=0;verticalAlign=middle;html=1;labelBackgroundColor=#ffffff;rounded=0;" parent="1" edge="1">
          <mxGeometry relative="1" as="geometry">
            <Array as="points" />
            <mxPoint x="141" y="847" as="sourcePoint" />
            <mxPoint x="141" y="875" as="targetPoint" />
          </mxGeometry>
        </mxCell>
        <mxCell id="mNSO4RlF-kOP6vkyRG6A-76" style="vsdxID=102;edgeStyle=none;startArrow=none;endArrow=classic;startSize=5;endSize=5;strokeColor=#923931;spacingTop=0;spacingBottom=0;spacingLeft=0;spacingRight=0;verticalAlign=middle;html=1;labelBackgroundColor=#ffffff;rounded=0;" parent="1" edge="1">
          <mxGeometry relative="1" as="geometry">
            <Array as="points" />
            <mxPoint x="66" y="847" as="sourcePoint" />
            <mxPoint x="66" y="875" as="targetPoint" />
          </mxGeometry>
        </mxCell>
        <mxCell id="mNSO4RlF-kOP6vkyRG6A-77" style="vsdxID=102;edgeStyle=none;startArrow=none;endArrow=classic;startSize=5;endSize=5;strokeColor=#923931;spacingTop=0;spacingBottom=0;spacingLeft=0;spacingRight=0;verticalAlign=middle;html=1;labelBackgroundColor=#ffffff;rounded=0;" parent="1" edge="1">
          <mxGeometry relative="1" as="geometry">
            <Array as="points" />
            <mxPoint x="-7" y="848" as="sourcePoint" />
            <mxPoint x="-7" y="876" as="targetPoint" />
          </mxGeometry>
        </mxCell>
        <mxCell id="mNSO4RlF-kOP6vkyRG6A-79" style="vsdxID=197;fillColor=#EBF1DF;gradientColor=none;shape=stencil(nZBLDoAgDERP0z3SIyjew0SURgSD+Lu9kMZoXLhwN9O+tukAlrNpJg1SzDH4QW/URgNYgZTkjA4UkwJUgGXng+6DX1zLfmoymdXo17xh5zmRJ6Q42BWCfc2oJfdAr+Yv+AP9Cb7OJ3H/2JG1HNGz/84klThPVCc=);strokeColor=#000000;labelBackgroundColor=none;rounded=0;html=1;whiteSpace=wrap;" parent="1" vertex="1">
          <mxGeometry x="81" y="972" width="59" height="38" as="geometry" />
        </mxCell>
        <mxCell id="mNSO4RlF-kOP6vkyRG6A-83" style="vsdxID=247;edgeStyle=none;startArrow=none;endArrow=classic;startSize=5;endSize=5;strokeColor=#923931;spacingTop=0;spacingBottom=0;spacingLeft=0;spacingRight=0;verticalAlign=middle;html=1;labelBackgroundColor=#ffffff;rounded=0;" parent="1" edge="1">
          <mxGeometry relative="1" as="geometry">
            <Array as="points" />
            <mxPoint x="108" y="1012" as="sourcePoint" />
            <mxPoint x="108" y="1048" as="targetPoint" />
          </mxGeometry>
        </mxCell>
        <mxCell id="mNSO4RlF-kOP6vkyRG6A-94" style="vsdxID=197;fillColor=#e1d5e7;shape=stencil(nZBLDoAgDERP0z3SIyjew0SURgSD+Lu9kMZoXLhwN9O+tukAlrNpJg1SzDH4QW/URgNYgZTkjA4UkwJUgGXng+6DX1zLfmoymdXo17xh5zmRJ6Q42BWCfc2oJfdAr+Yv+AP9Cb7OJ3H/2JG1HNGz/84klThPVCc=);strokeColor=#9673a6;labelBackgroundColor=none;rounded=0;html=1;whiteSpace=wrap;" parent="1" vertex="1">
          <mxGeometry x="82" y="1051" width="220" height="40" as="geometry" />
        </mxCell>
        <mxCell id="mNSO4RlF-kOP6vkyRG6A-95" value="&lt;p style=&quot;margin-left: 0 ; margin-right: 0 ; margin-top: 0px ; margin-bottom: 0px ; text-indent: 0 ; direction: ltr&quot;&gt;&lt;font style=&quot;font-family: calibri; color: rgb(0, 0, 0); direction: ltr; letter-spacing: 0px; line-height: 120%; opacity: 1; font-size: 23px;&quot;&gt;Couche de sortie&lt;/font&gt;&lt;font style=&quot;font-size: 14px ; font-family: &amp;quot;themed&amp;quot; ; color: #000000 ; direction: ltr ; letter-spacing: 0px ; line-height: 120% ; opacity: 1&quot;&gt;&lt;br&gt;&lt;/font&gt;&lt;/p&gt;" style="verticalAlign=middle;align=center;vsdxID=200;fillColor=#e1d5e7;shape=stencil(nZBLDoAgDERP0z3SIyjew0SURgSD+Lu9kMZoXLhwN9O+tukAlrNpJg1SzDH4QW/URgNYgZTkjA4UkwJUgGXng+6DX1zLfmoymdXo17xh5zmRJ6Q42BWCfc2oJfdAr+Yv+AP9Cb7OJ3H/2JG1HNGz/84klThPVCc=);strokeColor=none;labelBackgroundColor=none;rounded=0;html=1;whiteSpace=wrap;" parent="1" vertex="1">
          <mxGeometry x="340" y="1055" width="224" height="34" as="geometry" />
        </mxCell>
        <mxCell id="mNSO4RlF-kOP6vkyRG6A-96" style="vsdxID=247;edgeStyle=none;startArrow=none;endArrow=classic;startSize=5;endSize=5;strokeColor=#923931;spacingTop=0;spacingBottom=0;spacingLeft=0;spacingRight=0;verticalAlign=middle;html=1;labelBackgroundColor=#ffffff;rounded=0;" parent="1" edge="1">
          <mxGeometry relative="1" as="geometry">
            <Array as="points" />
            <mxPoint x="192" y="1092" as="sourcePoint" />
            <mxPoint x="192" y="1128" as="targetPoint" />
          </mxGeometry>
        </mxCell>
        <mxCell id="mNSO4RlF-kOP6vkyRG6A-109" value="&lt;p style=&quot;margin-left: 0 ; margin-right: 0 ; margin-top: 0px ; margin-bottom: 0px ; text-indent: 0 ; direction: ltr&quot;&gt;&lt;font face=&quot;cambria math&quot;&gt;&lt;span style=&quot;font-size: 15px&quot;&gt;Ta+1&lt;/span&gt;&lt;/font&gt;&lt;/p&gt;" style="verticalAlign=middle;align=center;vsdxID=66;fillColor=#FFFFFF;gradientColor=none;shape=stencil(vVHLDsIgEPwajiQI6RfU+h8bu22JCGRB2/69kG1iazx58DazM/vIjjBtmiCi0CplCjecbZ8nYc5Ca+snJJsLEqYTph0C4Ujh4XvmEaqzont41gkL96naodXKrGF6YSfQtUi0OXXDVlqPfJNP6usotUhYbJIUMmQb/GGrAxpRljVycDBuc1hKM2LclX8/7H9nFfB+82Cd45T2+mcspcSRmu4F);spacingTop=-3;spacingBottom=-1;spacingLeft=-3;spacingRight=-3;labelBackgroundColor=none;rounded=0;html=1;whiteSpace=wrap;" parent="1" vertex="1">
          <mxGeometry x="88" y="980" width="42" height="22" as="geometry" />
        </mxCell>
        <mxCell id="mNSO4RlF-kOP6vkyRG6A-111" value="&lt;p style=&quot;margin-left: 0 ; margin-right: 0 ; margin-top: 0px ; margin-bottom: 0px ; text-indent: 0 ; direction: ltr&quot;&gt;&lt;/p&gt;&lt;p style=&quot;margin: 0px ; direction: ltr&quot;&gt;&lt;span style=&quot;font-family: &amp;#34;cambria math&amp;#34; ; font-size: 15px&quot;&gt;Ta+1&lt;/span&gt;&lt;br&gt;&lt;/p&gt;&lt;font face=&quot;cambria math&quot;&gt;&lt;/font&gt;" style="verticalAlign=middle;align=center;vsdxID=66;fillColor=#FFFFFF;gradientColor=none;shape=stencil(vVHLDsIgEPwajiQI6RfU+h8bu22JCGRB2/69kG1iazx58DazM/vIjjBtmiCi0CplCjecbZ8nYc5Ca+snJJsLEqYTph0C4Ujh4XvmEaqzont41gkL96naodXKrGF6YSfQtUi0OXXDVlqPfJNP6usotUhYbJIUMmQb/GGrAxpRljVycDBuc1hKM2LclX8/7H9nFfB+82Cd45T2+mcspcSRmu4F);spacingTop=-3;spacingBottom=-1;spacingLeft=-3;spacingRight=-3;labelBackgroundColor=none;rounded=0;html=1;whiteSpace=wrap;" parent="1" vertex="1">
          <mxGeometry x="92" y="1055" width="78" height="30" as="geometry" />
        </mxCell>
        <mxCell id="mNSO4RlF-kOP6vkyRG6A-112" value="&lt;p style=&quot;margin-left: 0 ; margin-right: 0 ; margin-top: 0px ; margin-bottom: 0px ; text-indent: 0 ; direction: ltr&quot;&gt;&lt;font style=&quot;letter-spacing: 0px ; font-size: 15px ; font-family: &amp;#34;cambria math&amp;#34; ; direction: ltr ; line-height: 18px ; opacity: 1&quot;&gt;a&lt;/font&gt;&lt;font style=&quot;letter-spacing: 0px ; font-family: &amp;#34;cambria math&amp;#34; ; direction: ltr ; line-height: 12.5px ; opacity: 1 ; font-size: 10.4167px&quot;&gt;&lt;sub&gt;5&lt;/sub&gt;&lt;/font&gt;&lt;br&gt;&lt;/p&gt;" style="verticalAlign=middle;align=center;vsdxID=66;fillColor=#FFFFFF;gradientColor=none;shape=stencil(vVHLDsIgEPwajiQI6RfU+h8bu22JCGRB2/69kG1iazx58DazM/vIjjBtmiCi0CplCjecbZ8nYc5Ca+snJJsLEqYTph0C4Ujh4XvmEaqzont41gkL96naodXKrGF6YSfQtUi0OXXDVlqPfJNP6usotUhYbJIUMmQb/GGrAxpRljVycDBuc1hKM2LclX8/7H9nFfB+82Cd45T2+mcspcSRmu4F);spacingTop=-3;spacingBottom=-1;spacingLeft=-3;spacingRight=-3;labelBackgroundColor=none;rounded=0;html=1;whiteSpace=wrap;" parent="1" vertex="1">
          <mxGeometry x="217" y="1054" width="72" height="32" as="geometry" />
        </mxCell>
        <mxCell id="mNSO4RlF-kOP6vkyRG6A-115" value="&lt;font style=&quot;font-family: calibri; color: rgb(0, 0, 0); direction: ltr; letter-spacing: 0px; line-height: 120%; opacity: 1;&quot;&gt;&lt;font style=&quot;font-size: 23px;&quot;&gt;Entrées&lt;/font&gt;&lt;br&gt;&lt;/font&gt;" style="verticalAlign=middle;align=center;vsdxID=192;fillColor=#fff2cc;gradientColor=none;shape=stencil(nZBLDoAgDERP0z3SIyjew0SURgSD+Lu9kMZoXLhwN9O+tukAlrNpJg1SzDH4QW/URgNYgZTkjA4UkwJUgGXng+6DX1zLfmoymdXo17xh5zmRJ6Q42BWCfc2oJfdAr+Yv+AP9Cb7OJ3H/2JG1HNGz/84klThPVCc=);strokeColor=none;labelBackgroundColor=none;rounded=0;html=1;whiteSpace=wrap;" parent="1" vertex="1">
          <mxGeometry x="359" y="682" width="204" height="34" as="geometry" />
        </mxCell>
        <mxCell id="mNSO4RlF-kOP6vkyRG6A-124" value="1" style="text;html=1;align=center;verticalAlign=middle;resizable=0;points=[];autosize=1;strokeColor=none;fillColor=none;fontSize=12;" parent="1" vertex="1">
          <mxGeometry x="80" y="940" width="20" height="20" as="geometry" />
        </mxCell>
        <mxCell id="mNSO4RlF-kOP6vkyRG6A-125" value="Cost&lt;sub&gt;A&lt;/sub&gt;" style="text;html=1;align=center;verticalAlign=middle;resizable=0;points=[];autosize=1;strokeColor=none;fillColor=none;fontSize=12;" parent="1" vertex="1">
          <mxGeometry x="165" y="1130" width="50" height="20" as="geometry" />
        </mxCell>
        <mxCell id="q0A0OrodCJSLka9zZiuR-1" value="" style="shape=curlyBracket;whiteSpace=wrap;html=1;rounded=1;flipH=1;labelPosition=right;verticalLabelPosition=middle;align=left;verticalAlign=middle;" vertex="1" parent="1">
          <mxGeometry x="320" y="800" width="20" height="210" as="geometry" />
        </mxCell>
        <mxCell id="q0A0OrodCJSLka9zZiuR-2" value="&lt;p style=&quot;margin-left: 0 ; margin-right: 0 ; margin-top: 0px ; margin-bottom: 0px ; text-indent: 0 ; direction: ltr&quot;&gt;&lt;font style=&quot;font-family: calibri; color: rgb(0, 0, 0); direction: ltr; letter-spacing: 0px; line-height: 120%; opacity: 1; font-size: 23px;&quot;&gt;Couches intermédiaires&lt;/font&gt;&lt;font style=&quot;font-size: 14px ; font-family: &amp;quot;themed&amp;quot; ; color: #000000 ; direction: ltr ; letter-spacing: 0px ; line-height: 120% ; opacity: 1&quot;&gt;&lt;br&gt;&lt;/font&gt;&lt;/p&gt;" style="verticalAlign=middle;align=center;vsdxID=200;fillColor=#f5f5f5;shape=stencil(nZBLDoAgDERP0z3SIyjew0SURgSD+Lu9kMZoXLhwN9O+tukAlrNpJg1SzDH4QW/URgNYgZTkjA4UkwJUgGXng+6DX1zLfmoymdXo17xh5zmRJ6Q42BWCfc2oJfdAr+Yv+AP9Cb7OJ3H/2JG1HNGz/84klThPVCc=);strokeColor=#666666;labelBackgroundColor=none;rounded=0;html=1;whiteSpace=wrap;fontColor=#333333;" vertex="1" parent="1">
          <mxGeometry x="350" y="878" width="204" height="55" as="geometry" />
        </mxCell>
      </root>
    </mxGraphModel>
  </diagram>
</mxfile>
